<?xml version="1.0" encoding="utf-8"?>
<!-- Generator: Adobe Illustrator 16.0.3, SVG Export Plug-In . SVG Version: 6.00 Build 0)  -->
<!DOCTYPE svg PUBLIC "-//W3C//DTD SVG 1.1//EN" "http://www.w3.org/Graphics/SVG/1.1/DTD/svg11.dtd">
<svg version="1.1" xmlns="http://www.w3.org/2000/svg" xmlns:xlink="http://www.w3.org/1999/xlink" x="0px" y="0px"
	 width="1462.68px" height="878.74px" viewBox="0 0 1462.68 878.74" enable-background="new 0 0 1462.68 878.74"
	 xml:space="preserve">
<g id="Capa_1">
</g>
<g id="Layer_1">
	<path fill="#292F36" d="M137.767,1h1189.789c39.089,0,71.071,31.979,71.071,71.072V805H66.698V72.072
		C66.698,32.983,98.678,1,137.767,1z"/>
	<path fill="#FFFFFF" d="M114.958,756.737h1235.416V72.072c0-12.446-10.362-22.809-22.809-22.809H137.776
		c-12.446,0-22.809,10.362-22.809,22.809v684.665H114.958L114.958,756.737z"/>
	<path fill="#B7B6B8" d="M2.01,805h1461.309v26.045c0,14.322-18.473,26.045-41.044,26.045H43.045C20.474,857.09,2,845.367,2,831.045
		V805H2.01z"/>
	<path fill="#CD5F5F" d="M1350.377,125.602H114.958V72.072c0-12.446,10.362-22.809,22.809-22.809h1189.789
		c12.446,0,22.809,10.362,22.809,22.809v53.526h0.013V125.602z"/>
	<path fill="#FFFFFF" d="M704.354,71.112h571.491c4.214,0,7.645,3.809,7.645,8.464v15.706c0,4.666-3.439,8.465-7.645,8.465H704.354
		c-4.213,0-7.644-3.809-7.644-8.465V79.576C696.709,74.921,700.146,71.112,704.354,71.112z"/>
	<path fill="#010202" fill-opacity="0.6" d="M108.751,858.09h1258.938c-4.171,7.16-8.473,14.209-12.837,21.216H121.596
		C117.233,872.299,112.924,865.247,108.751,858.09z"/>
	<path fill="#6EB278" d="M411.375,421.864c0,9.394-6.665,17.008-14.886,17.008H234.593c-8.221,0-14.885-7.614-14.885-17.008V185.88
		c0-9.394,6.665-17.008,14.885-17.008h161.896c8.221,0,14.886,7.614,14.886,17.008V421.864z"/>
	<path fill="#FFFFFF" d="M234.593,430.368c-4.104,0-7.443-3.814-7.443-8.504V185.88c0-4.689,3.339-8.504,7.443-8.504h161.896
		c4.104,0,7.442,3.814,7.442,8.504v235.984c0,4.689-3.338,8.504-7.442,8.504H234.593z"/>
	<path fill="#ECF0F1" d="M314.648,275.089c39.149,0,70.873,31.721,70.873,70.866c0,39.132-31.724,70.866-70.873,70.866
		c-39.136,0-70.859-31.734-70.859-70.866C243.789,306.81,275.513,275.089,314.648,275.089z"/>
	<rect x="306.958" y="214.033" fill="#ACD3B0" width="87.333" height="32.666"/>
	<path fill="#ECF0F1" d="M252.987,217.782c7.83,0,14.175,6.344,14.175,14.173c0,7.826-6.345,14.173-14.175,14.173
		c-7.827,0-14.171-6.347-14.171-14.173C238.815,224.126,245.16,217.782,252.987,217.782z"/>
	<path fill="#ECF0F1" d="M286.654,217.782c7.83,0,14.175,6.344,14.175,14.173c0,7.826-6.345,14.173-14.175,14.173
		c-7.827,0-14.171-6.347-14.171-14.173C272.482,224.126,278.827,217.782,286.654,217.782z"/>
	<path fill="#6EB278" d="M620.875,421.864c0,9.394-6.665,17.008-14.886,17.008H444.094c-8.221,0-14.886-7.614-14.886-17.008V185.88
		c0-9.394,6.665-17.008,14.886-17.008h161.896c8.221,0,14.886,7.614,14.886,17.008V421.864z"/>
	<path fill="#FFFFFF" d="M444.094,430.368c-4.104,0-7.443-3.814-7.443-8.504V185.88c0-4.689,3.339-8.504,7.443-8.504h161.896
		c4.104,0,7.442,3.814,7.442,8.504v235.984c0,4.689-3.338,8.504-7.442,8.504H444.094z"/>
	<path fill="#ECF0F1" d="M524.148,275.089c39.148,0,70.873,31.721,70.873,70.866c0,39.132-31.725,70.866-70.873,70.866
		c-39.136,0-70.859-31.734-70.859-70.866C453.289,306.81,485.013,275.089,524.148,275.089z"/>
	<rect x="447.791" y="192.113" fill="#6EB278" width="130.667" height="14.173"/>
	<rect x="516.458" y="214.033" fill="#ACD3B0" width="87.333" height="32.666"/>
	<path fill="#ECF0F1" d="M462.486,217.782c7.83,0,14.176,6.344,14.176,14.173c0,7.826-6.346,14.173-14.176,14.173
		c-7.826,0-14.171-6.347-14.171-14.173C448.315,224.126,454.66,217.782,462.486,217.782z"/>
	<path fill="#ECF0F1" d="M496.154,217.782c7.83,0,14.174,6.344,14.174,14.173c0,7.826-6.344,14.173-14.174,14.173
		c-7.827,0-14.172-6.347-14.172-14.173C481.982,224.126,488.327,217.782,496.154,217.782z"/>
	<path fill="#6EB278" d="M831.374,421.531c0,9.393-6.664,17.008-14.885,17.008H654.594c-8.221,0-14.886-7.615-14.886-17.008V185.547
		c0-9.395,6.665-17.008,14.886-17.008h161.896c8.221,0,14.885,7.613,14.885,17.008V421.531z"/>
	<path fill="#FFFFFF" d="M654.594,430.035c-4.104,0-7.443-3.814-7.443-8.504V185.547c0-4.689,3.339-8.504,7.443-8.504h161.896
		c4.104,0,7.443,3.814,7.443,8.504v235.984c0,4.689-3.34,8.504-7.443,8.504H654.594z"/>
	<path fill="#ECF0F1" d="M734.648,274.756c39.149,0,70.872,31.721,70.872,70.865c0,39.133-31.723,70.867-70.872,70.867
		c-39.136,0-70.859-31.734-70.859-70.867C663.789,306.477,695.513,274.756,734.648,274.756z"/>
	<rect x="658.292" y="192.699" fill="#6EB278" width="130.666" height="14.334"/>
	<rect x="726.958" y="213.699" fill="#ACD3B0" width="87.333" height="32.666"/>
	<path fill="#ECF0F1" d="M672.986,217.449c7.83,0,14.176,6.344,14.176,14.172c0,7.826-6.346,14.174-14.176,14.174
		c-7.826,0-14.171-6.348-14.171-14.174C658.815,223.793,665.16,217.449,672.986,217.449z"/>
	<path fill="#ECF0F1" d="M706.654,217.449c7.83,0,14.174,6.344,14.174,14.172c0,7.826-6.344,14.174-14.174,14.174
		c-7.827,0-14.172-6.348-14.172-14.174C692.482,223.793,698.827,217.449,706.654,217.449z"/>
	<rect x="240.791" y="192.113" fill="#6EB278" width="130.667" height="14.173"/>
	<path fill="#DD644B" d="M1045.374,421.864c0,9.394-6.664,17.008-14.885,17.008H868.593c-8.221,0-14.885-7.614-14.885-17.008V185.88
		c0-9.394,6.664-17.008,14.885-17.008h161.896c8.221,0,14.885,7.614,14.885,17.008V421.864z"/>
	<path fill="#FFFFFF" d="M868.593,430.368c-4.104,0-7.442-3.814-7.442-8.504V185.88c0-4.689,3.339-8.504,7.442-8.504h161.896
		c4.104,0,7.443,3.814,7.443,8.504v235.984c0,4.689-3.34,8.504-7.443,8.504H868.593z"/>
	<path fill="#ECF0F1" d="M948.648,275.089c39.149,0,70.872,31.721,70.872,70.866c0,39.132-31.723,70.866-70.872,70.866
		c-39.136,0-70.859-31.734-70.859-70.866C877.789,306.81,909.513,275.089,948.648,275.089z"/>
	<rect x="872.291" y="192.613" fill="#DD644B" width="130.667" height="14.173"/>
	<rect x="940.958" y="214.033" fill="#E8A197" width="87.333" height="32.666"/>
	<path fill="#ECF0F1" d="M886.987,217.782c7.83,0,14.174,6.344,14.174,14.173c0,7.826-6.344,14.173-14.174,14.173
		c-7.827,0-14.172-6.347-14.172-14.173C872.815,224.126,879.16,217.782,886.987,217.782z"/>
	<path fill="#ECF0F1" d="M920.653,217.782c7.83,0,14.176,6.344,14.176,14.173c0,7.826-6.346,14.173-14.176,14.173
		c-7.826,0-14.171-6.347-14.171-14.173C906.482,224.126,912.827,217.782,920.653,217.782z"/>
	<path fill="#DD644B" d="M1262.374,421.864c0,9.394-6.664,17.008-14.885,17.008h-161.896c-8.221,0-14.885-7.614-14.885-17.008
		V185.88c0-9.394,6.664-17.008,14.885-17.008h161.896c8.221,0,14.885,7.614,14.885,17.008V421.864z"/>
	<path fill="#FFFFFF" d="M1085.593,430.368c-4.104,0-7.442-3.814-7.442-8.504V185.88c0-4.689,3.339-8.504,7.442-8.504h161.896
		c4.104,0,7.443,3.814,7.443,8.504v235.984c0,4.689-3.34,8.504-7.443,8.504H1085.593z"/>
	<path fill="#ECF0F1" d="M1165.648,275.089c39.149,0,70.872,31.721,70.872,70.866c0,39.132-31.723,70.866-70.872,70.866
		c-39.136,0-70.859-31.734-70.859-70.866C1094.789,306.81,1126.513,275.089,1165.648,275.089z"/>
	<rect x="1089.291" y="192.613" fill="#DD644B" width="130.667" height="14.173"/>
	<rect x="1157.958" y="214.033" fill="#E8A197" width="87.333" height="32.666"/>
	<path fill="#ECF0F1" d="M1103.987,217.782c7.83,0,14.174,6.344,14.174,14.173c0,7.826-6.344,14.173-14.174,14.173
		c-7.827,0-14.172-6.347-14.172-14.173C1089.815,224.126,1096.16,217.782,1103.987,217.782z"/>
	<path fill="#ECF0F1" d="M1137.653,217.782c7.83,0,14.176,6.344,14.176,14.173c0,7.826-6.346,14.173-14.176,14.173
		c-7.826,0-14.171-6.347-14.171-14.173C1123.482,224.126,1129.827,217.782,1137.653,217.782z"/>
	<path fill="#DD644B" d="M411.375,710.864c0,9.394-6.665,17.008-14.886,17.008H234.593c-8.221,0-14.885-7.614-14.885-17.008V474.88
		c0-9.394,6.665-17.008,14.885-17.008h161.896c8.221,0,14.886,7.614,14.886,17.008V710.864z"/>
	<path fill="#FFFFFF" d="M234.593,719.368c-4.104,0-7.443-3.814-7.443-8.504V474.88c0-4.689,3.339-8.504,7.443-8.504h161.896
		c4.104,0,7.442,3.814,7.442,8.504v235.984c0,4.689-3.338,8.504-7.442,8.504H234.593z"/>
	<path fill="#ECF0F1" d="M314.648,564.089c39.149,0,70.873,31.721,70.873,70.866c0,39.132-31.724,70.866-70.873,70.866
		c-39.136,0-70.859-31.734-70.859-70.866C243.789,595.81,275.513,564.089,314.648,564.089z"/>
	<rect x="306.958" y="503.033" fill="#E8A197" width="87.333" height="32.666"/>
	<path fill="#ECF0F1" d="M252.987,506.782c7.83,0,14.175,6.344,14.175,14.173c0,7.826-6.345,14.173-14.175,14.173
		c-7.827,0-14.171-6.347-14.171-14.173C238.815,513.126,245.16,506.782,252.987,506.782z"/>
	<path fill="#ECF0F1" d="M286.654,506.782c7.83,0,14.175,6.344,14.175,14.173c0,7.826-6.345,14.173-14.175,14.173
		c-7.827,0-14.171-6.347-14.171-14.173C272.482,513.126,278.827,506.782,286.654,506.782z"/>
	<path fill="#5776B9" d="M620.875,710.864c0,9.394-6.665,17.008-14.886,17.008H444.094c-8.221,0-14.886-7.614-14.886-17.008V474.88
		c0-9.394,6.665-17.008,14.886-17.008h161.896c8.221,0,14.886,7.614,14.886,17.008V710.864z"/>
	<path fill="#FFFFFF" d="M444.094,719.368c-4.104,0-7.443-3.814-7.443-8.504V474.88c0-4.689,3.339-8.504,7.443-8.504h161.896
		c4.104,0,7.442,3.814,7.442,8.504v235.984c0,4.689-3.338,8.504-7.442,8.504H444.094z"/>
	<path fill="#ECF0F1" d="M524.148,564.089c39.148,0,70.873,31.721,70.873,70.866c0,39.132-31.725,70.866-70.873,70.866
		c-39.136,0-70.859-31.734-70.859-70.866C453.289,595.81,485.013,564.089,524.148,564.089z"/>
	<rect x="447.791" y="481.113" fill="#5776B9" width="130.667" height="14.173"/>
	<rect x="516.458" y="503.033" fill="#9DBAE3" width="87.333" height="32.666"/>
	<path fill="#ECF0F1" d="M462.486,506.782c7.83,0,14.176,6.344,14.176,14.173c0,7.826-6.346,14.173-14.176,14.173
		c-7.826,0-14.171-6.347-14.171-14.173C448.315,513.126,454.66,506.782,462.486,506.782z"/>
	<path fill="#ECF0F1" d="M496.154,506.782c7.83,0,14.174,6.344,14.174,14.173c0,7.826-6.344,14.173-14.174,14.173
		c-7.827,0-14.172-6.347-14.172-14.173C481.982,513.126,488.327,506.782,496.154,506.782z"/>
	<path fill="#5776B9" d="M831.374,710.531c0,9.393-6.664,17.008-14.885,17.008H654.594c-8.221,0-14.886-7.615-14.886-17.008V474.547
		c0-9.395,6.665-17.008,14.886-17.008h161.896c8.221,0,14.885,7.613,14.885,17.008V710.531z"/>
	<path fill="#FFFFFF" d="M654.594,719.035c-4.104,0-7.443-3.814-7.443-8.504V474.547c0-4.689,3.339-8.504,7.443-8.504h161.896
		c4.104,0,7.443,3.814,7.443,8.504v235.984c0,4.689-3.34,8.504-7.443,8.504H654.594z"/>
	<path fill="#ECF0F1" d="M734.648,563.756c39.149,0,70.872,31.721,70.872,70.865c0,39.133-31.723,70.867-70.872,70.867
		c-39.136,0-70.859-31.734-70.859-70.867C663.789,595.477,695.513,563.756,734.648,563.756z"/>
	<rect x="658.291" y="481.779" fill="#5776B9" width="130.667" height="14.174"/>
	<rect x="726.958" y="502.699" fill="#9DBAE3" width="87.333" height="32.666"/>
	<path fill="#ECF0F1" d="M672.986,506.449c7.83,0,14.176,6.344,14.176,14.172c0,7.826-6.346,14.174-14.176,14.174
		c-7.826,0-14.171-6.348-14.171-14.174C658.815,512.793,665.16,506.449,672.986,506.449z"/>
	<path fill="#ECF0F1" d="M706.654,506.449c7.83,0,14.174,6.344,14.174,14.172c0,7.826-6.344,14.174-14.174,14.174
		c-7.827,0-14.172-6.348-14.172-14.174C692.482,512.793,698.827,506.449,706.654,506.449z"/>
	<rect x="240.791" y="481.113" fill="#DD644B" width="130.667" height="14.173"/>
	<path fill="#5776B9" d="M1045.374,710.864c0,9.394-6.664,17.008-14.885,17.008H868.593c-8.221,0-14.885-7.614-14.885-17.008V474.88
		c0-9.394,6.664-17.008,14.885-17.008h161.896c8.221,0,14.885,7.614,14.885,17.008V710.864z"/>
	<path fill="#FFFFFF" d="M868.593,719.368c-4.104,0-7.442-3.814-7.442-8.504V474.88c0-4.689,3.339-8.504,7.442-8.504h161.896
		c4.104,0,7.443,3.814,7.443,8.504v235.984c0,4.689-3.34,8.504-7.443,8.504H868.593z"/>
	<path fill="#ECF0F1" d="M948.648,564.089c39.149,0,70.872,31.721,70.872,70.866c0,39.132-31.723,70.866-70.872,70.866
		c-39.136,0-70.859-31.734-70.859-70.866C877.789,595.81,909.513,564.089,948.648,564.089z"/>
	<rect x="872.291" y="481.613" fill="#5776B9" width="130.667" height="14.173"/>
	<rect x="940.958" y="503.033" fill="#9DBAE3" width="87.333" height="32.666"/>
	<path fill="#ECF0F1" d="M886.987,506.782c7.83,0,14.174,6.344,14.174,14.173c0,7.826-6.344,14.173-14.174,14.173
		c-7.827,0-14.172-6.347-14.172-14.173C872.815,513.126,879.16,506.782,886.987,506.782z"/>
	<path fill="#ECF0F1" d="M920.653,506.782c7.83,0,14.176,6.344,14.176,14.173c0,7.826-6.346,14.173-14.176,14.173
		c-7.826,0-14.171-6.347-14.171-14.173C906.482,513.126,912.827,506.782,920.653,506.782z"/>
	<path fill="#DED7A4" d="M1262.374,710.864c0,9.394-6.664,17.008-14.885,17.008h-161.896c-8.221,0-14.885-7.614-14.885-17.008
		V474.88c0-9.394,6.664-17.008,14.885-17.008h161.896c8.221,0,14.885,7.614,14.885,17.008V710.864z"/>
	<path fill="#FFFFFF" d="M1085.593,719.368c-4.104,0-7.442-3.814-7.442-8.504V474.88c0-4.689,3.339-8.504,7.442-8.504h161.896
		c4.104,0,7.443,3.814,7.443,8.504v235.984c0,4.689-3.34,8.504-7.443,8.504H1085.593z"/>
	<path fill="#ECF0F1" d="M1165.648,564.089c39.149,0,70.872,31.721,70.872,70.866c0,39.132-31.723,70.866-70.872,70.866
		c-39.136,0-70.859-31.734-70.859-70.866C1094.789,595.81,1126.513,564.089,1165.648,564.089z"/>
	<rect x="1089.291" y="481.613" fill="#DED7A4" width="130.667" height="14.173"/>
	<rect x="1157.958" y="503.033" fill="#EEE7CA" width="87.333" height="32.666"/>
	<path fill="#ECF0F1" d="M1103.987,506.782c7.83,0,14.174,6.344,14.174,14.173c0,7.826-6.344,14.173-14.174,14.173
		c-7.827,0-14.172-6.347-14.172-14.173C1089.815,513.126,1096.16,506.782,1103.987,506.782z"/>
	<path fill="#ECF0F1" d="M1137.653,506.782c7.83,0,14.176,6.344,14.176,14.173c0,7.826-6.346,14.173-14.176,14.173
		c-7.826,0-14.171-6.347-14.171-14.173C1123.482,513.126,1129.827,506.782,1137.653,506.782z"/>
	<rect x="147.562" y="64.172" fill="#ECF0F1" width="182.991" height="38.998"/>
</g>
</svg>
