<?xml version="1.0" encoding="utf-8"?>
<!-- Generator: Adobe Illustrator 16.0.3, SVG Export Plug-In . SVG Version: 6.00 Build 0)  -->
<!DOCTYPE svg PUBLIC "-//W3C//DTD SVG 1.1//EN" "http://www.w3.org/Graphics/SVG/1.1/DTD/svg11.dtd">
<svg version="1.1" id="Layer_1" xmlns="http://www.w3.org/2000/svg" xmlns:xlink="http://www.w3.org/1999/xlink" x="0px" y="0px"
	 width="1870.869px" height="1644.09px" viewBox="0 0 1870.869 1644.09" enable-background="new 0 0 1870.869 1644.09"
	 xml:space="preserve">
<circle fill="#777777" cx="946.755" cy="822.045" r="822.047"/>
<path fill="#212121" d="M946.755,1601.572c-105.254,0-207.337-20.604-303.415-61.242c-92.82-39.26-176.19-95.473-247.795-167.077
	c-71.604-71.604-127.817-154.974-167.077-247.795c-40.637-96.076-61.242-198.159-61.242-303.414s20.605-207.337,61.242-303.414
	c39.26-92.821,95.473-176.191,167.077-247.795c71.604-71.604,154.975-127.817,247.795-167.077
	c96.077-40.637,198.16-61.242,303.415-61.242c105.254,0,207.337,20.605,303.414,61.242c92.82,39.26,176.19,95.473,247.795,167.077
	c71.604,71.604,127.816,154.974,167.076,247.795c40.638,96.077,61.242,198.16,61.242,303.414s-20.604,207.337-61.242,303.414
	c-39.26,92.821-95.473,176.191-167.077,247.795c-71.604,71.604-154.974,127.817-247.794,167.077
	C1154.092,1580.968,1052.009,1601.572,946.755,1601.572z"/>
<path fill="#424242" d="M271.888,379h1189.789c39.089,0,71.071,31.979,71.071,71.072V1183H200.82V450.072
	C200.82,410.983,232.799,379,271.888,379z"/>
<path fill="#FFFFFF" d="M249.079,1134.737h1235.416V450.072c0-12.446-10.362-22.809-22.809-22.809H271.898
	c-12.446,0-22.809,10.362-22.809,22.809v684.665H249.079L249.079,1134.737z"/>
<path fill="#ECF0F1" d="M274.647,524.937h1184.281v274.147H274.647V524.937z"/>
<path fill="#B6B6B8" d="M136.131,1183H1597.44v41.045c0,22.571-18.473,41.045-41.044,41.045H177.166
	c-22.571,0-41.045-18.474-41.045-41.045V1183H136.131z"/>
<path fill="#919191" d="M720.933,1197.999h291.699l-31.247,20.754H752.174l-31.248-20.754H720.933z"/>
<path fill="#424242" d="M1176.686,637.076h437.016c13.859,0,25.092,11.232,25.092,25.091v577.827
	c0,13.859-11.232,25.092-25.092,25.092h-437.016c-13.859,0-25.092-11.232-25.092-25.092V662.168
	C1151.594,648.309,1162.829,637.076,1176.686,637.076z"/>
<path fill="#FFFFFF" d="M1182.1,681.521h426.193c1.609,0,2.913,1.304,2.913,2.913v518.944c0,1.609-1.304,2.913-2.913,2.913H1182.1
	c-1.609,0-2.913-1.304-2.913-2.913V684.437C1179.187,682.828,1180.49,681.521,1182.1,681.521z"/>
<circle fill="#B6B6B8" cx="1395.203" cy="1234.638" r="16.364"/>
<path fill="#ECF0F1" d="M1201.928,746.523h386.547v227.83h-386.547V746.523z"/>
<path fill="#424242" d="M1519.544,861.854h202.466c7.035,0,12.734,5.703,12.734,12.735v377.765c0,7.035-5.702,12.735-12.734,12.735
	h-202.466c-7.035,0-12.735-5.703-12.735-12.735V874.59C1506.809,867.558,1512.509,861.854,1519.544,861.854z"/>
<path fill="#FFFFFF" d="M1529.027,899.599h183.501c0.693,0,1.255,0.562,1.255,1.256v325.229c0,0.693-0.562,1.256-1.255,1.256
	h-183.501c-0.693,0-1.255-0.563-1.255-1.256V900.851C1527.772,900.16,1528.336,899.599,1529.027,899.599z"/>
<g>
	<circle fill="#B6B6B8" cx="1620.791" cy="1244.509" r="11.515"/>
	<path fill="#B6B6B8" d="M1589.975,882.638h61.602c1.555,0,2.813,1.259,2.813,2.813v0.01c0,1.555-1.259,2.813-2.813,2.813h-61.602
		c-1.555,0-2.813-1.259-2.813-2.813v-0.01C1587.161,883.896,1588.42,882.638,1589.975,882.638z"/>
</g>
<path fill="#AAAAAA" d="M1484.498,503.602H249.079v-53.529c0-12.446,10.362-22.809,22.809-22.809h1189.789
	c12.446,0,22.809,10.362,22.809,22.809v53.526h0.013V503.602z"/>
<path fill="#FFFFFF" d="M776.299,449.112h632.847c4.666,0,8.465,3.809,8.465,8.464v15.706c0,4.666-3.809,8.465-8.465,8.465H776.299
	c-4.666,0-8.465-3.809-8.465-8.465v-15.706C767.834,452.921,771.64,449.112,776.299,449.112z"/>
<g>
	<path fill="#ECF0F1" d="M301.64,448.531c10.57,0,19.145,8.566,19.145,19.145c0,10.577-8.574,19.145-19.145,19.145
		c-10.581,0-19.161-8.567-19.161-19.145C282.479,457.098,291.052,448.531,301.64,448.531z"/>
	<path fill="#ECF0F1" d="M377.217,448.531c10.58,0,19.145,8.566,19.145,19.145c0,10.577-8.567,19.145-19.145,19.145
		c-10.571,0-19.146-8.567-19.146-19.145C358.072,457.098,366.646,448.531,377.217,448.531z"/>
	<path fill="#ECF0F1" d="M452.813,448.531c10.571,0,19.145,8.566,19.145,19.145c0,10.577-8.573,19.145-19.145,19.145
		c-10.59,0-19.16-8.567-19.16-19.145C433.653,457.098,442.223,448.531,452.813,448.531z"/>
</g>
<path fill="#B7B7B7" d="M406.081,865.224c30.516,0,55.244,24.729,55.244,55.244c0,30.506-24.729,55.244-55.244,55.244
	c-30.506,0-55.234-24.738-55.234-55.244C350.847,889.952,375.575,865.224,406.081,865.224z"/>
<path fill="#828282" d="M691.487,865.224c30.506,0,55.234,24.729,55.234,55.244c0,30.506-24.729,55.244-55.234,55.244
	s-55.234-24.738-55.234-55.244C636.252,889.952,660.981,865.224,691.487,865.224z"/>
<g>
	<path fill="#DCE3DB" d="M326.824,999.397h158.533v8.6H326.824V999.397z M326.824,1053.44h106.48v8.6h-106.48V1053.44
		L326.824,1053.44z M326.824,1026.422h158.533v8.594H326.824V1026.422z"/>
	<path fill="#DCE3DB" d="M612.233,999.397h158.524v8.6H612.233V999.397z M612.233,1053.44h106.491v8.6H612.233V1053.44z
		 M612.233,1026.422h158.524v8.594H612.233V1026.422z"/>
</g>
<path fill="#5B5B5B" d="M994.441,865.224c30.506,0,55.235,24.729,55.235,55.244c0,30.506-24.729,55.244-55.235,55.244
	s-55.234-24.738-55.234-55.244C939.203,889.952,963.932,865.224,994.441,865.224z"/>
<path fill="#DCE3DB" d="M915.184,999.397h158.523v8.6H915.184V999.397L915.184,999.397z M915.184,1053.44h106.49v8.6h-106.49
	V1053.44z M915.184,1026.422h158.523v8.594H915.184V1026.422L915.184,1026.422z"/>
<path fill="#B7B7B7" d="M1278.912,1007.175c18.933,0,34.288,15.355,34.288,34.288c0,18.934-15.346,34.289-34.288,34.289
	c-18.934,0-34.289-15.355-34.289-34.289C1244.623,1022.527,1259.973,1007.175,1278.912,1007.175z"/>
<path fill="#DCE3DB" d="M1229.714,1090.459h98.396v6.958h-98.396V1090.459z M1229.714,1134.182h66.095v6.958h-66.095V1134.182z
	 M1229.714,1112.313h98.396v6.959h-98.396V1112.313z"/>
<path fill="#828282" d="M1412.742,1007.175c18.933,0,34.288,15.355,34.288,34.288c0,18.934-15.355,34.289-34.288,34.289
	s-34.289-15.355-34.289-34.289C1378.453,1022.527,1393.81,1007.175,1412.742,1007.175z"/>
<path fill="#DCE3DB" d="M1363.544,1090.459h98.396v6.958h-98.396V1090.459z M1363.544,1134.182h66.095v6.958h-66.095V1134.182z
	 M1363.544,1112.313h98.396v6.959h-98.396V1112.313z"/>
<path fill="#AAAAAA" d="M1611.209,731.438h-432.032v-46.999c0-1.608,1.304-2.912,2.913-2.912h426.194
	c1.608,0,2.912,1.304,2.912,2.912v46.999H1611.209z"/>
<g>
	<path fill="#ECF0F1" d="M1211.202,695.724c6.217,0,11.245,5.028,11.245,11.236c0,6.207-5.028,11.235-11.245,11.235
		c-6.208,0-11.236-5.028-11.236-11.235C1199.966,700.752,1205.001,695.724,1211.202,695.724z"/>
	<path fill="#ECF0F1" d="M1242.838,695.724c6.207,0,11.235,5.028,11.235,11.236c0,6.207-5.028,11.235-11.235,11.235
		s-11.235-5.028-11.235-11.235C1231.603,700.752,1236.631,695.724,1242.838,695.724z"/>
	<path fill="#ECF0F1" d="M1274.474,695.724c6.207,0,11.236,5.028,11.236,11.236c0,6.207-5.029,11.235-11.236,11.235
		s-11.235-5.028-11.235-11.235C1263.239,700.752,1268.274,695.724,1274.474,695.724z"/>
</g>
<path fill="#FFFFFF" d="M1337.534,698.235h256.919c1.895,0,3.437,2.039,3.437,4.53v8.407c0,2.491-1.542,4.53-3.437,4.53h-256.919
	c-1.895,0-3.437-2.039-3.437-4.53v-8.407C1334.098,700.274,1335.64,698.235,1337.534,698.235z"/>
<path fill="#AAAAAA" d="M1713.782,921.405h-186.011v-20.551c0-0.7,0.564-1.256,1.255-1.256h183.501c0.693,0,1.255,0.556,1.255,1.256
	V921.405L1713.782,921.405z"/>
<path fill="#FFFFFF" d="M1540.911,903.288c3.555,0,6.426,2.871,6.426,6.426c0,3.545-2.871,6.426-6.426,6.426
	c-3.545,0-6.426-2.881-6.426-6.426C1534.486,906.159,1537.366,903.288,1540.911,903.288z"/>
<g>
	<path fill="#ECF0F1" d="M1558.996,903.288c3.555,0,6.426,2.871,6.426,6.426c0,3.545-2.871,6.426-6.426,6.426
		s-6.426-2.881-6.426-6.426C1552.571,906.159,1555.448,903.288,1558.996,903.288z"/>
	<path fill="#ECF0F1" d="M1577.078,903.288c3.555,0,6.426,2.871,6.426,6.426c0,3.545-2.871,6.426-6.426,6.426
		c-3.545,0-6.426-2.881-6.426-6.426C1570.653,906.159,1573.533,903.288,1577.078,903.288z"/>
</g>
<path fill="#FFFFFF" d="M1603.198,904.12h103.424c1.388,0,2.508,1.124,2.508,2.508v6.721c0,1.388-1.123,2.508-2.508,2.508h-103.424
	c-1.387,0-2.508-1.124-2.508-2.508v-6.721C1600.69,905.247,1601.814,904.12,1603.198,904.12z"/>
<path fill="#ECF0F1" d="M1536.795,928.447h167.968v99.003h-167.968V928.447L1536.795,928.447z"/>
<path fill="#5B5B5B" d="M1625.711,1047.747c17.218,0,31.174,13.956,31.174,31.181c0,17.218-13.956,31.18-31.174,31.18
	c-17.219,0-31.174-13.955-31.174-31.18C1594.54,1061.709,1608.496,1047.747,1625.711,1047.747z"/>
<path fill="#DCE3DB" d="M1571.604,1132.811h108.215v7.646h-108.215V1132.811z M1571.604,1180.903h72.699v7.646h-72.699V1180.903z
	 M1571.604,1156.855h108.215v7.646h-108.215V1156.855z"/>
<path fill-opacity="0.6" d="M242.872,1265.09h1385.132c-4.589,7.16-9.322,14.209-14.123,21.216H257.005
	C252.204,1279.299,247.464,1272.247,242.872,1265.09z"/>
<path fill="#B6B6B8" d="M1340.559,654.93h109.285c1.554,0,2.813,1.259,2.813,2.813v0.01c0,1.555-1.259,2.813-2.813,2.813h-109.285
	c-1.554,0-2.813-1.259-2.813-2.813v-0.01C1337.746,656.191,1339.005,654.93,1340.559,654.93z"/>
</svg>
