<?xml version="1.0" encoding="utf-8"?>
<!-- Generator: Adobe Illustrator 16.0.3, SVG Export Plug-In . SVG Version: 6.00 Build 0)  -->
<!DOCTYPE svg PUBLIC "-//W3C//DTD SVG 1.1//EN" "http://www.w3.org/Graphics/SVG/1.1/DTD/svg11.dtd">
<svg version="1.1" id="Layer_1" xmlns="http://www.w3.org/2000/svg" xmlns:xlink="http://www.w3.org/1999/xlink" x="0px" y="0px"
	 width="1870.869px" height="1644.09px" viewBox="0 0 1870.869 1644.09" enable-background="new 0 0 1870.869 1644.09"
	 xml:space="preserve">
<circle fill="#D8E077" cx="946.755" cy="822.045" r="822.047"/>
<ellipse opacity="0.5" fill="#EDEDED" cx="912.755" cy="791.272" rx="788.047" ry="791.275"/>
<path display="none" fill="#00C9CE" d="M946.755,1601.572c-105.254,0-207.337-20.604-303.415-61.242
	c-92.82-39.26-176.19-95.473-247.795-167.077c-71.604-71.604-127.817-154.974-167.077-247.795
	c-40.637-96.076-61.242-198.159-61.242-303.414s20.605-207.337,61.242-303.414c39.26-92.821,95.473-176.191,167.077-247.795
	c71.604-71.604,154.975-127.817,247.795-167.077c96.077-40.637,198.16-61.242,303.415-61.242
	c105.254,0,207.337,20.605,303.414,61.242c92.82,39.26,176.19,95.473,247.795,167.077
	c71.604,71.604,127.816,154.974,167.076,247.795c40.638,96.077,61.242,198.16,61.242,303.414s-20.604,207.337-61.242,303.414
	c-39.26,92.821-95.473,176.191-167.077,247.795c-71.604,71.604-154.974,127.817-247.794,167.077
	C1154.092,1580.968,1052.009,1601.572,946.755,1601.572z"/>
<g>
	<path fill="#282E35" d="M261.574,336.494h1189.789c39.089,0,71.071,31.979,71.071,71.072v732.927H190.506V407.566
		C190.506,368.477,222.486,336.494,261.574,336.494z"/>
	<path fill="#FFFFFF" d="M238.766,1092.231h1235.416V407.566c0-12.446-10.362-22.809-22.809-22.809H261.584
		c-12.446,0-22.809,10.362-22.809,22.809v684.666H238.766L238.766,1092.231z"/>
	<path d="M125.818,1140.493h1461.309v26.045c0,14.322-18.473,26.045-41.044,26.045H166.853c-22.571,0-41.045-11.723-41.045-26.045
		v-26.045H125.818z"/>
	<path fill="#CC5E5E" d="M1474.185,461.095H238.766v-53.529c0-12.446,10.362-22.809,22.809-22.809h1189.789
		c12.446,0,22.809,10.362,22.809,22.809v53.526h0.013V461.095z"/>
	<path fill="#FFFFFF" d="M828.161,406.606h571.491c4.214,0,7.645,3.809,7.645,8.464v15.706c0,4.666-3.439,8.465-7.645,8.465H828.161
		c-4.213,0-7.644-3.809-7.644-8.465V415.07C820.517,410.415,823.954,406.606,828.161,406.606z"/>
	<path fill-opacity="0.6" d="M232.559,1193.583h1258.938c-4.171,7.16-8.473,14.209-12.837,21.217H245.404
		C241.041,1207.792,236.732,1200.741,232.559,1193.583z"/>
	<path fill="#6FB277" d="M535.183,757.358c0,9.394-6.665,17.008-14.886,17.008H358.401c-8.221,0-14.885-7.614-14.885-17.008V521.374
		c0-9.394,6.665-17.008,14.885-17.008h161.896c8.221,0,14.886,7.614,14.886,17.008V757.358z"/>
	<path fill="#FFFFFF" d="M358.401,765.862c-4.104,0-7.443-3.814-7.443-8.504V521.374c0-4.689,3.339-8.504,7.443-8.504h161.896
		c4.104,0,7.442,3.814,7.442,8.504v235.984c0,4.689-3.338,8.504-7.442,8.504H358.401z"/>
	<path fill="#ECF0F1" d="M438.456,610.583c39.149,0,70.873,31.721,70.873,70.866c0,39.132-31.724,70.866-70.873,70.866
		c-39.136,0-70.859-31.734-70.859-70.866C367.597,642.303,399.321,610.583,438.456,610.583z"/>
	<rect x="430.766" y="549.527" fill="#ABD3AF" width="87.333" height="32.666"/>
	<path fill="#ECF0F1" d="M376.795,553.276c7.83,0,14.175,6.344,14.175,14.173c0,7.826-6.345,14.173-14.175,14.173
		c-7.827,0-14.171-6.347-14.171-14.173C362.623,559.62,368.968,553.276,376.795,553.276z"/>
	<path fill="#ECF0F1" d="M410.462,553.276c7.83,0,14.175,6.344,14.175,14.173c0,7.826-6.345,14.173-14.175,14.173
		c-7.827,0-14.171-6.347-14.171-14.173C396.29,559.62,402.635,553.276,410.462,553.276z"/>
	<path fill="#6FB277" d="M744.683,757.358c0,9.394-6.665,17.008-14.886,17.008H567.902c-8.221,0-14.886-7.614-14.886-17.008V521.374
		c0-9.394,6.665-17.008,14.886-17.008h161.896c8.221,0,14.886,7.614,14.886,17.008V757.358z"/>
	<path fill="#FFFFFF" d="M567.902,765.862c-4.104,0-7.443-3.814-7.443-8.504V521.374c0-4.689,3.339-8.504,7.443-8.504h161.896
		c4.104,0,7.442,3.814,7.442,8.504v235.984c0,4.689-3.338,8.504-7.442,8.504H567.902z"/>
	<path fill="#ECF0F1" d="M647.956,610.583c39.148,0,70.873,31.721,70.873,70.866c0,39.132-31.725,70.866-70.873,70.866
		c-39.136,0-70.859-31.734-70.859-70.866C577.097,642.303,608.821,610.583,647.956,610.583z"/>
	<rect x="571.599" y="527.607" fill="#6FB277" width="130.667" height="14.173"/>
	<rect x="640.266" y="549.527" fill="#ABD3AF" width="87.333" height="32.666"/>
	<path fill="#ECF0F1" d="M586.294,553.276c7.83,0,14.176,6.344,14.176,14.173c0,7.826-6.346,14.173-14.176,14.173
		c-7.826,0-14.171-6.347-14.171-14.173C572.123,559.62,578.468,553.276,586.294,553.276z"/>
	<path fill="#ECF0F1" d="M619.962,553.276c7.83,0,14.174,6.344,14.174,14.173c0,7.826-6.344,14.173-14.174,14.173
		c-7.827,0-14.172-6.347-14.172-14.173C605.79,559.62,612.135,553.276,619.962,553.276z"/>
	<path fill="#6FB277" d="M955.182,757.025c0,9.393-6.664,17.008-14.885,17.008H778.402c-8.221,0-14.886-7.615-14.886-17.008V521.041
		c0-9.395,6.665-17.008,14.886-17.008h161.896c8.221,0,14.885,7.613,14.885,17.008V757.025z"/>
	<path fill="#FFFFFF" d="M778.402,765.529c-4.104,0-7.443-3.814-7.443-8.504V521.041c0-4.689,3.339-8.504,7.443-8.504h161.896
		c4.104,0,7.443,3.814,7.443,8.504v235.984c0,4.689-3.34,8.504-7.443,8.504H778.402z"/>
	<path fill="#ECF0F1" d="M858.456,610.25c39.149,0,70.872,31.721,70.872,70.865c0,39.133-31.723,70.867-70.872,70.867
		c-39.136,0-70.859-31.734-70.859-70.867C787.597,641.97,819.321,610.25,858.456,610.25z"/>
	<rect x="782.099" y="528.193" fill="#6FB277" width="130.666" height="14.334"/>
	<rect x="850.766" y="549.193" fill="#ABD3AF" width="87.333" height="32.666"/>
	<path fill="#ECF0F1" d="M796.794,552.943c7.83,0,14.176,6.344,14.176,14.172c0,7.826-6.346,14.174-14.176,14.174
		c-7.826,0-14.171-6.348-14.171-14.174C782.623,559.287,788.968,552.943,796.794,552.943z"/>
	<path fill="#ECF0F1" d="M830.462,552.943c7.83,0,14.174,6.344,14.174,14.172c0,7.826-6.344,14.174-14.174,14.174
		c-7.827,0-14.172-6.348-14.172-14.174C816.29,559.287,822.635,552.943,830.462,552.943z"/>
	<rect x="364.599" y="527.607" fill="#6FB277" width="130.667" height="14.173"/>
	<path fill="#DD644B" d="M1169.182,757.358c0,9.394-6.664,17.008-14.885,17.008H992.401c-8.221,0-14.885-7.614-14.885-17.008
		V521.374c0-9.394,6.664-17.008,14.885-17.008h161.896c8.221,0,14.885,7.614,14.885,17.008V757.358z"/>
	<path fill="#FFFFFF" d="M992.401,765.862c-4.104,0-7.442-3.814-7.442-8.504V521.374c0-4.689,3.339-8.504,7.442-8.504h161.896
		c4.104,0,7.443,3.814,7.443,8.504v235.984c0,4.689-3.34,8.504-7.443,8.504H992.401z"/>
	<path fill="#ECF0F1" d="M1072.456,610.583c39.149,0,70.872,31.721,70.872,70.866c0,39.132-31.723,70.866-70.872,70.866
		c-39.136,0-70.859-31.734-70.859-70.866C1001.597,642.303,1033.321,610.583,1072.456,610.583z"/>
	<rect x="996.099" y="528.107" fill="#DD644B" width="130.667" height="14.173"/>
	<rect x="1064.766" y="549.527" fill="#E8A097" width="87.333" height="32.666"/>
	<path fill="#ECF0F1" d="M1010.795,553.276c7.83,0,14.174,6.344,14.174,14.173c0,7.826-6.344,14.173-14.174,14.173
		c-7.827,0-14.172-6.347-14.172-14.173C996.623,559.62,1002.968,553.276,1010.795,553.276z"/>
	<path fill="#ECF0F1" d="M1044.461,553.276c7.83,0,14.176,6.344,14.176,14.173c0,7.826-6.346,14.173-14.176,14.173
		c-7.826,0-14.171-6.347-14.171-14.173C1030.29,559.62,1036.635,553.276,1044.461,553.276z"/>
	<path fill="#DD644B" d="M1386.182,757.358c0,9.394-6.664,17.008-14.885,17.008h-161.896c-8.221,0-14.885-7.614-14.885-17.008
		V521.374c0-9.394,6.664-17.008,14.885-17.008h161.896c8.221,0,14.885,7.614,14.885,17.008V757.358z"/>
	<path fill="#FFFFFF" d="M1209.401,765.862c-4.104,0-7.442-3.814-7.442-8.504V521.374c0-4.689,3.339-8.504,7.442-8.504h161.896
		c4.104,0,7.443,3.814,7.443,8.504v235.984c0,4.689-3.34,8.504-7.443,8.504H1209.401z"/>
	<path fill="#ECF0F1" d="M1289.456,610.583c39.149,0,70.872,31.721,70.872,70.866c0,39.132-31.723,70.866-70.872,70.866
		c-39.136,0-70.859-31.734-70.859-70.866C1218.597,642.303,1250.321,610.583,1289.456,610.583z"/>
	<rect x="1213.099" y="528.107" fill="#DD644B" width="130.667" height="14.173"/>
	<rect x="1281.766" y="549.527" fill="#E8A097" width="87.333" height="32.666"/>
	<path fill="#ECF0F1" d="M1227.795,553.276c7.83,0,14.174,6.344,14.174,14.173c0,7.826-6.344,14.173-14.174,14.173
		c-7.827,0-14.172-6.347-14.172-14.173C1213.623,559.62,1219.968,553.276,1227.795,553.276z"/>
	<path fill="#ECF0F1" d="M1261.461,553.276c7.83,0,14.176,6.344,14.176,14.173c0,7.826-6.346,14.173-14.176,14.173
		c-7.826,0-14.171-6.347-14.171-14.173C1247.29,559.62,1253.635,553.276,1261.461,553.276z"/>
	<path fill="#DD644B" d="M535.183,1046.358c0,9.393-6.665,17.008-14.886,17.008H358.401c-8.221,0-14.885-7.615-14.885-17.008
		V810.374c0-9.394,6.665-17.008,14.885-17.008h161.896c8.221,0,14.886,7.614,14.886,17.008V1046.358z"/>
	<path fill="#FFFFFF" d="M358.401,1054.862c-4.104,0-7.443-3.814-7.443-8.504V810.374c0-4.689,3.339-8.504,7.443-8.504h161.896
		c4.104,0,7.442,3.814,7.442,8.504v235.985c0,4.689-3.338,8.504-7.442,8.504H358.401z"/>
	<path fill="#ECF0F1" d="M438.456,899.583c39.149,0,70.873,31.721,70.873,70.865c0,39.133-31.724,70.867-70.873,70.867
		c-39.136,0-70.859-31.734-70.859-70.867C367.597,931.304,399.321,899.583,438.456,899.583z"/>
	<rect x="430.766" y="838.526" fill="#E8A097" width="87.333" height="32.666"/>
	<path fill="#ECF0F1" d="M376.795,842.276c7.83,0,14.175,6.344,14.175,14.172c0,7.826-6.345,14.174-14.175,14.174
		c-7.827,0-14.171-6.348-14.171-14.174C362.623,848.62,368.968,842.276,376.795,842.276z"/>
	<path fill="#ECF0F1" d="M410.462,842.276c7.83,0,14.175,6.344,14.175,14.172c0,7.826-6.345,14.174-14.175,14.174
		c-7.827,0-14.171-6.348-14.171-14.174C396.29,848.62,402.635,842.276,410.462,842.276z"/>
	<path fill="#537CE0" d="M744.683,1046.358c0,9.393-6.665,17.008-14.886,17.008H567.902c-8.221,0-14.886-7.615-14.886-17.008
		V810.374c0-9.394,6.665-17.008,14.886-17.008h161.896c8.221,0,14.886,7.614,14.886,17.008V1046.358z"/>
	<path fill="#FFFFFF" d="M567.902,1054.862c-4.104,0-7.443-3.814-7.443-8.504V810.374c0-4.689,3.339-8.504,7.443-8.504h161.896
		c4.104,0,7.442,3.814,7.442,8.504v235.985c0,4.689-3.338,8.504-7.442,8.504H567.902z"/>
	<path fill="#ECF0F1" d="M647.956,899.583c39.148,0,70.873,31.721,70.873,70.865c0,39.133-31.725,70.867-70.873,70.867
		c-39.136,0-70.859-31.734-70.859-70.867C577.097,931.304,608.821,899.583,647.956,899.583z"/>
	<rect x="571.599" y="816.607" fill="#537CE0" width="130.667" height="14.172"/>
	<rect x="640.266" y="838.526" fill="#9CBAE5" width="87.333" height="32.666"/>
	<path fill="#ECF0F1" d="M586.294,842.276c7.83,0,14.176,6.344,14.176,14.172c0,7.826-6.346,14.174-14.176,14.174
		c-7.826,0-14.171-6.348-14.171-14.174C572.123,848.62,578.468,842.276,586.294,842.276z"/>
	<path fill="#ECF0F1" d="M619.962,842.276c7.83,0,14.174,6.344,14.174,14.172c0,7.826-6.344,14.174-14.174,14.174
		c-7.827,0-14.172-6.348-14.172-14.174C605.79,848.62,612.135,842.276,619.962,842.276z"/>
	<path fill="#537CE0" d="M955.182,1046.024c0,9.393-6.664,17.008-14.885,17.008H778.402c-8.221,0-14.886-7.615-14.886-17.008
		V810.041c0-9.395,6.665-17.008,14.886-17.008h161.896c8.221,0,14.885,7.613,14.885,17.008V1046.024z"/>
	<path fill="#FFFFFF" d="M778.402,1054.528c-4.104,0-7.443-3.814-7.443-8.504V810.041c0-4.689,3.339-8.504,7.443-8.504h161.896
		c4.104,0,7.443,3.814,7.443,8.504v235.984c0,4.689-3.34,8.504-7.443,8.504H778.402z"/>
	<path fill="#ECF0F1" d="M858.456,899.249c39.149,0,70.872,31.721,70.872,70.865c0,39.133-31.723,70.867-70.872,70.867
		c-39.136,0-70.859-31.734-70.859-70.867C787.597,930.97,819.321,899.249,858.456,899.249z"/>
	<rect x="782.099" y="817.273" fill="#537CE0" width="130.667" height="14.173"/>
	<rect x="850.766" y="838.192" fill="#9CBAE5" width="87.333" height="32.666"/>
	<path fill="#ECF0F1" d="M796.794,841.942c7.83,0,14.176,6.344,14.176,14.172c0,7.826-6.346,14.174-14.176,14.174
		c-7.826,0-14.171-6.348-14.171-14.174C782.623,848.286,788.968,841.942,796.794,841.942z"/>
	<path fill="#ECF0F1" d="M830.462,841.942c7.83,0,14.174,6.344,14.174,14.172c0,7.826-6.344,14.174-14.174,14.174
		c-7.827,0-14.172-6.348-14.172-14.174C816.29,848.286,822.635,841.942,830.462,841.942z"/>
	<rect x="364.599" y="816.607" fill="#DD644B" width="130.667" height="14.172"/>
	<path fill="#537CE0" d="M1169.182,1046.358c0,9.393-6.664,17.008-14.885,17.008H992.401c-8.221,0-14.885-7.615-14.885-17.008
		V810.374c0-9.394,6.664-17.008,14.885-17.008h161.896c8.221,0,14.885,7.614,14.885,17.008V1046.358z"/>
	<path fill="#FFFFFF" d="M992.401,1054.862c-4.104,0-7.442-3.814-7.442-8.504V810.374c0-4.689,3.339-8.504,7.442-8.504h161.896
		c4.104,0,7.443,3.814,7.443,8.504v235.985c0,4.689-3.34,8.504-7.443,8.504H992.401z"/>
	<path fill="#ECF0F1" d="M1072.456,899.583c39.149,0,70.872,31.721,70.872,70.865c0,39.133-31.723,70.867-70.872,70.867
		c-39.136,0-70.859-31.734-70.859-70.867C1001.597,931.304,1033.321,899.583,1072.456,899.583z"/>
	<rect x="996.099" y="817.107" fill="#537CE0" width="130.667" height="14.173"/>
	<rect x="1064.766" y="838.526" fill="#9CBAE5" width="87.333" height="32.666"/>
	<path fill="#ECF0F1" d="M1010.795,842.276c7.83,0,14.174,6.344,14.174,14.172c0,7.826-6.344,14.174-14.174,14.174
		c-7.827,0-14.172-6.348-14.172-14.174C996.623,848.62,1002.968,842.276,1010.795,842.276z"/>
	<path fill="#ECF0F1" d="M1044.461,842.276c7.83,0,14.176,6.344,14.176,14.172c0,7.826-6.346,14.174-14.176,14.174
		c-7.826,0-14.171-6.348-14.171-14.174C1030.29,848.62,1036.635,842.276,1044.461,842.276z"/>
	<path fill="#DDD6A4" d="M1386.182,1046.358c0,9.393-6.664,17.008-14.885,17.008h-161.896c-8.221,0-14.885-7.615-14.885-17.008
		V810.374c0-9.394,6.664-17.008,14.885-17.008h161.896c8.221,0,14.885,7.614,14.885,17.008V1046.358z"/>
	<path fill="#FFFFFF" d="M1209.401,1054.862c-4.104,0-7.442-3.814-7.442-8.504V810.374c0-4.689,3.339-8.504,7.442-8.504h161.896
		c4.104,0,7.443,3.814,7.443,8.504v235.985c0,4.689-3.34,8.504-7.443,8.504H1209.401z"/>
	<path fill="#ECF0F1" d="M1289.456,899.583c39.149,0,70.872,31.721,70.872,70.865c0,39.133-31.723,70.867-70.872,70.867
		c-39.136,0-70.859-31.734-70.859-70.867C1218.597,931.304,1250.321,899.583,1289.456,899.583z"/>
	<rect x="1213.099" y="817.107" fill="#DDD6A4" width="130.667" height="14.173"/>
	<rect x="1281.766" y="838.526" fill="#EDE7CA" width="87.333" height="32.666"/>
	<path fill="#ECF0F1" d="M1227.795,842.276c7.83,0,14.174,6.344,14.174,14.172c0,7.826-6.344,14.174-14.174,14.174
		c-7.827,0-14.172-6.348-14.172-14.174C1213.623,848.62,1219.968,842.276,1227.795,842.276z"/>
	<path fill="#ECF0F1" d="M1261.461,842.276c7.83,0,14.176,6.344,14.176,14.172c0,7.826-6.346,14.174-14.176,14.174
		c-7.826,0-14.171-6.348-14.171-14.174C1247.29,848.62,1253.635,842.276,1261.461,842.276z"/>
	<rect x="271.37" y="399.666" fill="#ECF0F1" width="182.991" height="38.998"/>
</g>
<g>
	<g>
		<path fill="#424242" d="M1298.493,622.57h437.016c13.859,0,25.092,11.232,25.092,25.091v577.827
			c0,13.859-11.232,25.092-25.092,25.092h-437.016c-13.859,0-25.092-11.232-25.092-25.092V647.662
			C1273.402,633.802,1284.637,622.57,1298.493,622.57z"/>
	</g>
	<path fill="#FFFFFF" d="M1303.907,667.014h426.193c1.609,0,2.913,1.304,2.913,2.913v518.945c0,1.609-1.304,2.912-2.913,2.912
		h-426.193c-1.609,0-2.913-1.303-2.913-2.912V669.93C1300.994,668.322,1302.298,667.014,1303.907,667.014z"/>
	<g>
		<g>
			<path fill="#537CE0" d="M1447.032,1211.983c0,5.424-3.941,9.82-8.806,9.82h-95.773c-4.863,0-8.807-4.396-8.807-9.82v-136.266
				c0-5.424,3.943-9.82,8.807-9.82h95.773c4.864,0,8.806,4.396,8.806,9.82V1211.983z"/>
			<path fill="#FFFFFF" d="M1342.453,1216.894c-2.428,0-4.403-2.203-4.403-4.91v-136.266c0-2.709,1.976-4.91,4.403-4.91h95.773
				c2.428,0,4.403,2.201,4.403,4.91v136.266c0,2.707-1.976,4.91-4.403,4.91H1342.453z"/>
			<path fill="#ECF0F1" d="M1389.812,1127.229c23.16,0,41.927,18.316,41.927,40.922c0,22.596-18.767,40.92-41.927,40.92
				c-23.151,0-41.918-18.324-41.918-40.92C1347.894,1145.546,1366.66,1127.229,1389.812,1127.229z"/>
			<rect x="1385.263" y="1091.974" fill="#9CBAE5" width="51.664" height="18.863"/>
			<path fill="#ECF0F1" d="M1353.334,1094.14c4.633,0,8.386,3.662,8.386,8.184c0,4.52-3.753,8.184-8.386,8.184
				c-4.629,0-8.384-3.664-8.384-8.184C1344.95,1097.802,1348.705,1094.14,1353.334,1094.14z"/>
			<path fill="#ECF0F1" d="M1373.251,1094.14c4.632,0,8.386,3.662,8.386,8.184c0,4.52-3.754,8.184-8.386,8.184
				c-4.631,0-8.384-3.664-8.384-8.184C1364.867,1097.802,1368.62,1094.14,1373.251,1094.14z"/>
			<rect x="1346.119" y="1079.317" fill="#537CE0" width="77.3" height="8.184"/>
		</g>
		<g>
			<path fill="#537CE0" d="M1574.033,1212.149c0,5.424-3.941,9.82-8.806,9.82h-95.773c-4.863,0-8.807-4.396-8.807-9.82v-136.266
				c0-5.424,3.943-9.82,8.807-9.82h95.773c4.864,0,8.806,4.396,8.806,9.82V1212.149z"/>
			<path fill="#FFFFFF" d="M1469.454,1217.06c-2.428,0-4.403-2.203-4.403-4.91v-136.266c0-2.709,1.976-4.91,4.403-4.91h95.773
				c2.428,0,4.403,2.201,4.403,4.91v136.266c0,2.707-1.976,4.91-4.403,4.91H1469.454z"/>
			<path fill="#ECF0F1" d="M1516.813,1127.396c23.16,0,41.927,18.316,41.927,40.922c0,22.596-18.767,40.92-41.927,40.92
				c-23.151,0-41.918-18.324-41.918-40.92C1474.895,1145.712,1493.661,1127.396,1516.813,1127.396z"/>
			<rect x="1512.264" y="1092.14" fill="#9CBAE5" width="51.664" height="18.863"/>
			<path fill="#ECF0F1" d="M1480.335,1094.306c4.633,0,8.386,3.662,8.386,8.184c0,4.52-3.753,8.184-8.386,8.184
				c-4.629,0-8.384-3.664-8.384-8.184C1471.951,1097.968,1475.706,1094.306,1480.335,1094.306z"/>
			<path fill="#ECF0F1" d="M1500.252,1094.306c4.632,0,8.386,3.662,8.386,8.184c0,4.52-3.754,8.184-8.386,8.184
				c-4.631,0-8.384-3.664-8.384-8.184C1491.868,1097.968,1495.621,1094.306,1500.252,1094.306z"/>
			<rect x="1473.12" y="1079.483" fill="#537CE0" width="77.3" height="8.184"/>
		</g>
		<g>
			<path fill="#537CE0" d="M1700.7,1212.315c0,5.424-3.941,9.82-8.806,9.82h-95.773c-4.863,0-8.807-4.396-8.807-9.82V1076.05
				c0-5.422,3.943-9.82,8.807-9.82h95.773c4.864,0,8.806,4.398,8.806,9.82V1212.315z"/>
			<path fill="#FFFFFF" d="M1596.121,1217.226c-2.428,0-4.403-2.201-4.403-4.91V1076.05c0-2.707,1.976-4.91,4.403-4.91h95.773
				c2.428,0,4.403,2.203,4.403,4.91v136.266c0,2.709-1.976,4.91-4.403,4.91H1596.121z"/>
			<path fill="#ECF0F1" d="M1643.48,1127.563c23.16,0,41.927,18.316,41.927,40.92c0,22.596-18.767,40.92-41.927,40.92
				c-23.151,0-41.918-18.324-41.918-40.92C1601.562,1145.88,1620.328,1127.563,1643.48,1127.563z"/>
			<rect x="1638.931" y="1092.308" fill="#9CBAE5" width="51.664" height="18.861"/>
			<path fill="#ECF0F1" d="M1607.002,1094.472c4.633,0,8.386,3.664,8.386,8.186c0,4.518-3.753,8.184-8.386,8.184
				c-4.629,0-8.384-3.666-8.384-8.184C1598.618,1098.136,1602.373,1094.472,1607.002,1094.472z"/>
			<path fill="#ECF0F1" d="M1626.919,1094.472c4.632,0,8.386,3.664,8.386,8.186c0,4.518-3.754,8.184-8.386,8.184
				c-4.631,0-8.384-3.666-8.384-8.184C1618.535,1098.136,1622.288,1094.472,1626.919,1094.472z"/>
			<rect x="1599.787" y="1079.651" fill="#537CE0" width="77.3" height="8.182"/>
		</g>
	</g>
	<rect x="1315.743" y="1192.04" fill="#424242" width="411.333" height="39.332"/>
	<circle fill="#B6B6B8" cx="1517.011" cy="1220.132" r="16.363"/>
	<path fill="#CC5E5E" d="M1733.017,716.932h-432.032v-46.999c0-1.608,1.304-2.912,2.913-2.912h426.194
		c1.608,0,2.912,1.304,2.912,2.912v46.999H1733.017z"/>
	<path fill="#FFFFFF" d="M1508.032,683.729h208.871c1.54,0,2.794,2.039,2.794,4.53v8.407c0,2.491-1.254,4.53-2.794,4.53h-208.871
		c-1.54,0-2.794-2.039-2.794-4.53v-8.407C1505.239,685.768,1506.492,683.729,1508.032,683.729z"/>
	<path fill="#B6B6B8" d="M1462.366,640.423h109.285c1.554,0,2.813,1.259,2.813,2.813v0.01c0,1.555-1.259,2.813-2.813,2.813h-109.285
		c-1.554,0-2.813-1.259-2.813-2.813v-0.01C1459.554,641.685,1460.813,640.423,1462.366,640.423z"/>
	<g>
		<path fill="#6FB277" d="M1447.041,872.999c0,5.424-3.941,9.82-8.806,9.82h-95.773c-4.863,0-8.807-4.396-8.807-9.82V736.733
			c0-5.423,3.943-9.82,8.807-9.82h95.773c4.864,0,8.806,4.397,8.806,9.82V872.999z"/>
		<path fill="#FFFFFF" d="M1342.462,877.909c-2.428,0-4.403-2.203-4.403-4.91V736.733c0-2.708,1.976-4.91,4.403-4.91h95.773
			c2.428,0,4.403,2.202,4.403,4.91v136.266c0,2.707-1.976,4.91-4.403,4.91H1342.462z"/>
		<path fill="#ECF0F1" d="M1389.821,788.246c23.16,0,41.927,18.316,41.927,40.92c0,22.597-18.767,40.921-41.927,40.921
			c-23.151,0-41.918-18.324-41.918-40.921C1347.903,806.562,1366.669,788.246,1389.821,788.246z"/>
		<rect x="1385.272" y="752.99" fill="#ABD3AF" width="51.664" height="18.862"/>
		<path fill="#ECF0F1" d="M1353.343,755.155c4.633,0,8.386,3.663,8.386,8.185c0,4.519-3.753,8.184-8.386,8.184
			c-4.629,0-8.384-3.665-8.384-8.184C1344.959,758.818,1348.714,755.155,1353.343,755.155z"/>
		<path fill="#ECF0F1" d="M1373.26,755.155c4.632,0,8.386,3.663,8.386,8.185c0,4.519-3.754,8.184-8.386,8.184
			c-4.631,0-8.384-3.665-8.384-8.184C1364.876,758.818,1368.629,755.155,1373.26,755.155z"/>
		<rect x="1346.128" y="740.333" fill="#6FB277" width="77.3" height="8.183"/>
	</g>
	<g>
		<path fill="#6FB277" d="M1574.042,873.165c0,5.424-3.941,9.82-8.806,9.82h-95.773c-4.863,0-8.807-4.396-8.807-9.82V736.899
			c0-5.423,3.943-9.82,8.807-9.82h95.773c4.864,0,8.806,4.397,8.806,9.82V873.165z"/>
		<path fill="#FFFFFF" d="M1469.463,878.075c-2.428,0-4.403-2.203-4.403-4.91V736.899c0-2.708,1.976-4.91,4.403-4.91h95.773
			c2.428,0,4.403,2.202,4.403,4.91v136.266c0,2.707-1.976,4.91-4.403,4.91H1469.463z"/>
		<path fill="#ECF0F1" d="M1516.822,788.412c23.16,0,41.927,18.316,41.927,40.92c0,22.597-18.767,40.921-41.927,40.921
			c-23.151,0-41.918-18.324-41.918-40.921C1474.904,806.728,1493.67,788.412,1516.822,788.412z"/>
		<rect x="1512.273" y="753.156" fill="#ABD3AF" width="51.664" height="18.862"/>
		<path fill="#ECF0F1" d="M1480.344,755.321c4.633,0,8.386,3.663,8.386,8.185c0,4.519-3.753,8.184-8.386,8.184
			c-4.629,0-8.384-3.665-8.384-8.184C1471.96,758.984,1475.715,755.321,1480.344,755.321z"/>
		<path fill="#ECF0F1" d="M1500.261,755.321c4.632,0,8.386,3.663,8.386,8.185c0,4.519-3.754,8.184-8.386,8.184
			c-4.631,0-8.384-3.665-8.384-8.184C1491.877,758.984,1495.63,755.321,1500.261,755.321z"/>
		<rect x="1473.129" y="740.5" fill="#6FB277" width="77.3" height="8.183"/>
	</g>
	<g>
		<path fill="#6FB277" d="M1700.709,873.331c0,5.424-3.941,9.82-8.806,9.82h-95.773c-4.863,0-8.807-4.396-8.807-9.82V737.066
			c0-5.423,3.943-9.82,8.807-9.82h95.773c4.864,0,8.806,4.397,8.806,9.82V873.331z"/>
		<path fill="#FFFFFF" d="M1596.13,878.241c-2.428,0-4.403-2.201-4.403-4.91V737.066c0-2.708,1.976-4.91,4.403-4.91h95.773
			c2.428,0,4.403,2.202,4.403,4.91v136.265c0,2.709-1.976,4.91-4.403,4.91H1596.13z"/>
		<path fill="#ECF0F1" d="M1643.489,788.579c23.16,0,41.927,18.316,41.927,40.921c0,22.595-18.767,40.919-41.927,40.919
			c-23.151,0-41.918-18.324-41.918-40.919C1601.571,806.895,1620.337,788.579,1643.489,788.579z"/>
		<rect x="1638.94" y="753.323" fill="#ABD3AF" width="51.664" height="18.862"/>
		<path fill="#ECF0F1" d="M1607.011,755.488c4.633,0,8.386,3.663,8.386,8.185c0,4.519-3.753,8.184-8.386,8.184
			c-4.629,0-8.384-3.665-8.384-8.184C1598.627,759.151,1602.382,755.488,1607.011,755.488z"/>
		<path fill="#ECF0F1" d="M1626.928,755.488c4.632,0,8.386,3.663,8.386,8.185c0,4.519-3.754,8.184-8.386,8.184
			c-4.631,0-8.384-3.665-8.384-8.184C1618.544,759.151,1622.297,755.488,1626.928,755.488z"/>
		<rect x="1599.796" y="740.667" fill="#6FB277" width="77.3" height="8.183"/>
	</g>
	<g>
		<path fill="#DD644B" d="M1447.032,1041.983c0,5.424-3.941,9.82-8.806,9.82h-95.773c-4.863,0-8.807-4.396-8.807-9.82V905.718
			c0-5.424,3.943-9.82,8.807-9.82h95.773c4.864,0,8.806,4.396,8.806,9.82V1041.983z"/>
		<path fill="#FFFFFF" d="M1342.453,1046.894c-2.428,0-4.403-2.203-4.403-4.91V905.718c0-2.709,1.976-4.91,4.403-4.91h95.773
			c2.428,0,4.403,2.201,4.403,4.91v136.266c0,2.707-1.976,4.91-4.403,4.91H1342.453z"/>
		<path fill="#ECF0F1" d="M1389.812,957.229c23.16,0,41.927,18.316,41.927,40.922c0,22.596-18.767,40.92-41.927,40.92
			c-23.151,0-41.918-18.324-41.918-40.92C1347.894,975.546,1366.66,957.229,1389.812,957.229z"/>
		<rect x="1385.263" y="921.974" fill="#E8A097" width="51.664" height="18.863"/>
		<path fill="#ECF0F1" d="M1353.334,924.14c4.633,0,8.386,3.662,8.386,8.184c0,4.52-3.753,8.184-8.386,8.184
			c-4.629,0-8.384-3.664-8.384-8.184C1344.95,927.802,1348.705,924.14,1353.334,924.14z"/>
		<path fill="#ECF0F1" d="M1373.251,924.14c4.632,0,8.386,3.662,8.386,8.184c0,4.52-3.754,8.184-8.386,8.184
			c-4.631,0-8.384-3.664-8.384-8.184C1364.867,927.802,1368.62,924.14,1373.251,924.14z"/>
		<rect x="1346.119" y="909.317" fill="#DD644B" width="77.3" height="8.184"/>
	</g>
	<g>
		<path fill="#DD644B" d="M1574.033,1042.149c0,5.424-3.941,9.82-8.806,9.82h-95.773c-4.863,0-8.807-4.396-8.807-9.82V905.884
			c0-5.424,3.943-9.82,8.807-9.82h95.773c4.864,0,8.806,4.396,8.806,9.82V1042.149z"/>
		<path fill="#FFFFFF" d="M1469.454,1047.06c-2.428,0-4.403-2.203-4.403-4.91V905.884c0-2.709,1.976-4.91,4.403-4.91h95.773
			c2.428,0,4.403,2.201,4.403,4.91v136.266c0,2.707-1.976,4.91-4.403,4.91H1469.454z"/>
		<path fill="#ECF0F1" d="M1516.813,957.396c23.16,0,41.927,18.316,41.927,40.922c0,22.596-18.767,40.92-41.927,40.92
			c-23.151,0-41.918-18.324-41.918-40.92C1474.895,975.712,1493.661,957.396,1516.813,957.396z"/>
		<rect x="1512.264" y="922.14" fill="#E8A097" width="51.664" height="18.863"/>
		<path fill="#ECF0F1" d="M1480.335,924.306c4.633,0,8.386,3.662,8.386,8.184c0,4.52-3.753,8.184-8.386,8.184
			c-4.629,0-8.384-3.664-8.384-8.184C1471.951,927.968,1475.706,924.306,1480.335,924.306z"/>
		<path fill="#ECF0F1" d="M1500.252,924.306c4.632,0,8.386,3.662,8.386,8.184c0,4.52-3.754,8.184-8.386,8.184
			c-4.631,0-8.384-3.664-8.384-8.184C1491.868,927.968,1495.621,924.306,1500.252,924.306z"/>
		<rect x="1473.12" y="909.483" fill="#DD644B" width="77.3" height="8.184"/>
	</g>
	<g>
		<path fill="#DD644B" d="M1700.7,1042.315c0,5.424-3.941,9.82-8.806,9.82h-95.773c-4.863,0-8.807-4.396-8.807-9.82V906.05
			c0-5.422,3.943-9.82,8.807-9.82h95.773c4.864,0,8.806,4.398,8.806,9.82V1042.315z"/>
		<path fill="#FFFFFF" d="M1596.121,1047.226c-2.428,0-4.403-2.201-4.403-4.91V906.05c0-2.707,1.976-4.91,4.403-4.91h95.773
			c2.428,0,4.403,2.203,4.403,4.91v136.266c0,2.709-1.976,4.91-4.403,4.91H1596.121z"/>
		<path fill="#ECF0F1" d="M1643.48,957.563c23.16,0,41.927,18.316,41.927,40.92c0,22.596-18.767,40.92-41.927,40.92
			c-23.151,0-41.918-18.324-41.918-40.92C1601.562,975.88,1620.328,957.563,1643.48,957.563z"/>
		<rect x="1638.931" y="922.308" fill="#E8A097" width="51.664" height="18.861"/>
		<path fill="#ECF0F1" d="M1607.002,924.472c4.633,0,8.386,3.664,8.386,8.186c0,4.518-3.753,8.184-8.386,8.184
			c-4.629,0-8.384-3.666-8.384-8.184C1598.618,928.136,1602.373,924.472,1607.002,924.472z"/>
		<path fill="#ECF0F1" d="M1626.919,924.472c4.632,0,8.386,3.664,8.386,8.186c0,4.518-3.754,8.184-8.386,8.184
			c-4.631,0-8.384-3.666-8.384-8.184C1618.535,928.136,1622.288,924.472,1626.919,924.472z"/>
		<rect x="1599.787" y="909.651" fill="#DD644B" width="77.3" height="8.182"/>
	</g>
	<rect x="1319.035" y="676.666" fill="#ECF0F1" width="112.374" height="26.707"/>
</g>
<g>
	<path fill="#424242" d="M945.351,870.258h202.466c7.035,0,12.734,5.703,12.734,12.735v377.764c0,7.035-5.702,12.736-12.734,12.736
		H945.351c-7.035,0-12.735-5.703-12.735-12.736V882.993C932.615,875.961,938.316,870.258,945.351,870.258z"/>
	<path fill="#FFFFFF" d="M954.833,908.002h183.501c0.693,0,1.255,0.562,1.255,1.256v325.229c0,0.693-0.562,1.256-1.255,1.256
		H954.833c-0.693,0-1.255-0.563-1.255-1.256V909.254C953.578,908.563,954.143,908.002,954.833,908.002z"/>
	<g>
		<circle fill="#B6B6B8" cx="1046.598" cy="1252.912" r="11.515"/>
		<path fill="#B6B6B8" d="M1015.781,891.041h61.602c1.555,0,2.813,1.259,2.813,2.813v0.01c0,1.555-1.259,2.813-2.813,2.813h-61.602
			c-1.555,0-2.813-1.259-2.813-2.813v-0.01C1012.968,892.3,1014.227,891.041,1015.781,891.041z"/>
	</g>
	<path fill="#CC5E5E" d="M1139.589,929.809H953.578v-20.551c0-0.7,0.564-1.256,1.255-1.256h183.501c0.693,0,1.255,0.556,1.255,1.256
		V929.809L1139.589,929.809z"/>
	<path fill="#FFFFFF" d="M1028.884,911.614h103.424c1.388,0,2.508,1.123,2.508,2.508v6.721c0,1.387-1.123,2.508-2.508,2.508
		h-103.424c-1.387,0-2.508-1.125-2.508-2.508v-6.721C1026.376,912.741,1027.5,911.614,1028.884,911.614z"/>
	<g>
		<g>
			<path fill="#537CE0" d="M1013.676,1200.853c0,2.793-1.826,5.059-4.08,5.059h-44.377c-2.252,0-4.08-2.266-4.08-5.059v-70.199
				c0-2.793,1.828-5.059,4.08-5.059h44.377c2.254,0,4.08,2.266,4.08,5.059V1200.853z"/>
			<path fill="#FFFFFF" d="M965.219,1203.382c-1.125,0-2.04-1.135-2.04-2.529v-70.199c0-1.395,0.915-2.529,2.04-2.529h44.377
				c1.125,0,2.04,1.135,2.04,2.529v70.199c0,1.395-0.915,2.529-2.04,2.529H965.219z"/>
			<path fill="#ECF0F1" d="M987.162,1157.19c10.731,0,19.428,9.438,19.428,21.082c0,11.641-8.696,21.08-19.428,21.08
				c-10.727,0-19.422-9.439-19.422-21.08C967.74,1166.628,976.436,1157.19,987.162,1157.19z"/>
			<rect x="985.056" y="1139.03" fill="#9CBAE5" width="23.938" height="9.715"/>
			<path fill="#ECF0F1" d="M970.261,1140.146c2.146,0,3.886,1.887,3.886,4.215s-1.739,4.217-3.886,4.217
				c-2.145,0-3.884-1.889-3.884-4.217S968.116,1140.146,970.261,1140.146z"/>
			<path fill="#ECF0F1" d="M979.49,1140.146c2.145,0,3.885,1.887,3.885,4.215s-1.74,4.217-3.885,4.217
				c-2.146,0-3.886-1.889-3.886-4.217S977.344,1140.146,979.49,1140.146z"/>
			<rect x="966.918" y="1132.509" fill="#537CE0" width="35.816" height="4.215"/>
		</g>
		<g>
			<path fill="#537CE0" d="M1072.522,1200.938c0,2.793-1.826,5.059-4.08,5.059h-44.376c-2.254,0-4.081-2.266-4.081-5.059v-70.199
				c0-2.793,1.827-5.059,4.081-5.059h44.376c2.254,0,4.08,2.266,4.08,5.059V1200.938z"/>
			<path fill="#FFFFFF" d="M1024.066,1203.468c-1.125,0-2.041-1.135-2.041-2.529v-70.199c0-1.395,0.916-2.529,2.041-2.529h44.376
				c1.125,0,2.04,1.135,2.04,2.529v70.199c0,1.395-0.915,2.529-2.04,2.529H1024.066z"/>
			<path fill="#ECF0F1" d="M1046.009,1157.276c10.73,0,19.426,9.436,19.426,21.082c0,11.639-8.695,21.08-19.426,21.08
				c-10.728,0-19.423-9.441-19.423-21.08C1026.586,1166.712,1035.281,1157.276,1046.009,1157.276z"/>
			<rect x="1043.901" y="1139.114" fill="#9CBAE5" width="23.938" height="9.717"/>
			<path fill="#ECF0F1" d="M1029.107,1140.229c2.146,0,3.885,1.887,3.885,4.217c0,2.328-1.738,4.217-3.885,4.217
				c-2.145,0-3.885-1.889-3.885-4.217C1025.222,1142.116,1026.962,1140.229,1029.107,1140.229z"/>
			<path fill="#ECF0F1" d="M1038.334,1140.229c2.146,0,3.886,1.887,3.886,4.217c0,2.328-1.739,4.217-3.886,4.217
				c-2.145,0-3.884-1.889-3.884-4.217C1034.45,1142.116,1036.19,1140.229,1038.334,1140.229z"/>
			<rect x="1025.764" y="1132.595" fill="#537CE0" width="35.816" height="4.215"/>
		</g>
		<g>
			<path fill="#537CE0" d="M1131.213,1201.024c0,2.793-1.826,5.059-4.08,5.059h-44.377c-2.253,0-4.08-2.266-4.08-5.059v-70.199
				c0-2.793,1.827-5.059,4.08-5.059h44.377c2.254,0,4.08,2.266,4.08,5.059V1201.024z"/>
			<path fill="#FFFFFF" d="M1082.756,1203.554c-1.125,0-2.04-1.135-2.04-2.529v-70.199c0-1.395,0.915-2.529,2.04-2.529h44.377
				c1.125,0,2.04,1.135,2.04,2.529v70.199c0,1.395-0.915,2.529-2.04,2.529H1082.756z"/>
			<path fill="#ECF0F1" d="M1104.699,1157.362c10.732,0,19.427,9.436,19.427,21.082c0,11.641-8.694,21.08-19.427,21.08
				c-10.727,0-19.422-9.439-19.422-21.08C1085.278,1166.798,1093.973,1157.362,1104.699,1157.362z"/>
			<rect x="1102.592" y="1139.2" fill="#9CBAE5" width="23.938" height="9.717"/>
			<path fill="#ECF0F1" d="M1087.798,1140.315c2.146,0,3.886,1.887,3.886,4.217c0,2.328-1.739,4.217-3.886,4.217
				c-2.145,0-3.884-1.889-3.884-4.217C1083.914,1142.202,1085.654,1140.315,1087.798,1140.315z"/>
			<path fill="#ECF0F1" d="M1097.027,1140.315c2.146,0,3.886,1.887,3.886,4.217c0,2.328-1.739,4.217-3.886,4.217
				c-2.146,0-3.884-1.889-3.884-4.217C1093.143,1142.202,1094.881,1140.315,1097.027,1140.315z"/>
			<rect x="1084.454" y="1132.681" fill="#537CE0" width="35.817" height="4.215"/>
		</g>
	</g>
	<g>
		<path fill="#6FB277" d="M1013.68,1026.223c0,2.794-1.826,5.06-4.079,5.06h-44.378c-2.253,0-4.08-2.266-4.08-5.06v-70.198
			c0-2.793,1.827-5.059,4.08-5.059h44.378c2.253,0,4.079,2.266,4.079,5.059V1026.223z"/>
		<path fill="#FFFFFF" d="M965.223,1028.752c-1.125,0-2.04-1.134-2.04-2.529v-70.198c0-1.395,0.915-2.529,2.04-2.529h44.378
			c1.125,0,2.039,1.135,2.039,2.529v70.198c0,1.396-0.914,2.529-2.039,2.529H965.223z"/>
		<path fill="#ECF0F1" d="M987.166,982.562c10.732,0,19.428,9.436,19.428,21.081c0,11.64-8.695,21.08-19.428,21.08
			c-10.727,0-19.422-9.44-19.422-21.08C967.744,991.997,976.44,982.562,987.166,982.562z"/>
		<rect x="985.059" y="964.399" fill="#ABD3AF" width="23.939" height="9.717"/>
		<path fill="#ECF0F1" d="M970.265,965.515c2.147,0,3.886,1.887,3.886,4.217c0,2.327-1.738,4.215-3.886,4.215
			c-2.145,0-3.884-1.888-3.884-4.215C966.381,967.401,968.12,965.515,970.265,965.515z"/>
		<path fill="#ECF0F1" d="M979.493,965.515c2.146,0,3.886,1.887,3.886,4.217c0,2.327-1.739,4.215-3.886,4.215
			c-2.146,0-3.884-1.888-3.884-4.215C975.61,967.401,977.348,965.515,979.493,965.515z"/>
		<rect x="966.922" y="957.88" fill="#6FB277" width="35.817" height="4.215"/>
	</g>
	<g>
		<path fill="#6FB277" d="M1072.526,1026.308c0,2.795-1.826,5.06-4.08,5.06h-44.377c-2.252,0-4.079-2.265-4.079-5.06V956.11
			c0-2.794,1.827-5.059,4.079-5.059h44.377c2.254,0,4.08,2.265,4.08,5.059V1026.308z"/>
		<path fill="#FFFFFF" d="M1024.069,1028.838c-1.125,0-2.039-1.134-2.039-2.53V956.11c0-1.396,0.914-2.529,2.039-2.529h44.377
			c1.125,0,2.04,1.134,2.04,2.529v70.197c0,1.396-0.915,2.53-2.04,2.53H1024.069z"/>
		<path fill="#ECF0F1" d="M1046.012,982.647c10.732,0,19.428,9.436,19.428,21.08c0,11.641-8.695,21.08-19.428,21.08
			c-10.727,0-19.422-9.439-19.422-21.08C1026.59,992.083,1035.285,982.647,1046.012,982.647z"/>
		<rect x="1043.906" y="964.485" fill="#ABD3AF" width="23.938" height="9.717"/>
		<path fill="#ECF0F1" d="M1029.112,965.601c2.146,0,3.885,1.887,3.885,4.216c0,2.328-1.739,4.216-3.885,4.216
			s-3.885-1.888-3.885-4.216C1025.227,967.487,1026.966,965.601,1029.112,965.601z"/>
		<path fill="#ECF0F1" d="M1038.34,965.601c2.146,0,3.885,1.887,3.885,4.216c0,2.328-1.739,4.216-3.885,4.216
			c-2.146,0-3.885-1.888-3.885-4.216C1034.455,967.487,1036.194,965.601,1038.34,965.601z"/>
		<rect x="1025.768" y="957.965" fill="#6FB277" width="35.816" height="4.216"/>
	</g>
	<g>
		<path fill="#6FB277" d="M1131.217,1026.395c0,2.794-1.826,5.059-4.08,5.059h-44.377c-2.253,0-4.08-2.265-4.08-5.059v-70.198
			c0-2.794,1.827-5.059,4.08-5.059h44.377c2.254,0,4.08,2.265,4.08,5.059V1026.395z"/>
		<path fill="#FFFFFF" d="M1082.76,1028.924c-1.125,0-2.039-1.135-2.039-2.529v-70.198c0-1.396,0.914-2.529,2.039-2.529h44.377
			c1.125,0,2.04,1.134,2.04,2.529v70.198c0,1.395-0.915,2.529-2.04,2.529H1082.76z"/>
		<path fill="#ECF0F1" d="M1104.704,982.733c10.731,0,19.427,9.436,19.427,21.08c0,11.641-8.695,21.08-19.427,21.08
			c-10.728,0-19.424-9.439-19.424-21.08C1085.281,992.169,1093.977,982.733,1104.704,982.733z"/>
		<rect x="1102.596" y="964.571" fill="#ABD3AF" width="23.938" height="9.717"/>
		<path fill="#ECF0F1" d="M1087.802,965.687c2.147,0,3.886,1.887,3.886,4.217c0,2.327-1.738,4.215-3.886,4.215
			c-2.146,0-3.885-1.888-3.885-4.215C1083.917,967.573,1085.656,965.687,1087.802,965.687z"/>
		<path fill="#ECF0F1" d="M1097.031,965.687c2.146,0,3.886,1.887,3.886,4.217c0,2.327-1.739,4.215-3.886,4.215
			s-3.885-1.888-3.885-4.215C1093.146,967.573,1094.884,965.687,1097.031,965.687z"/>
		<rect x="1084.459" y="958.052" fill="#6FB277" width="35.817" height="4.215"/>
	</g>
	<g>
		<path fill="#DD644B" d="M1013.676,1113.276c0,2.793-1.826,5.059-4.08,5.059h-44.377c-2.252,0-4.08-2.266-4.08-5.059v-70.199
			c0-2.793,1.828-5.059,4.08-5.059h44.377c2.254,0,4.08,2.266,4.08,5.059V1113.276z"/>
		<path fill="#FFFFFF" d="M965.219,1115.806c-1.125,0-2.04-1.135-2.04-2.529v-70.199c0-1.395,0.915-2.528,2.04-2.528h44.377
			c1.125,0,2.04,1.134,2.04,2.528v70.199c0,1.395-0.915,2.529-2.04,2.529H965.219z"/>
		<path fill="#ECF0F1" d="M987.162,1069.614c10.731,0,19.428,9.437,19.428,21.081c0,11.641-8.696,21.081-19.428,21.081
			c-10.727,0-19.422-9.44-19.422-21.081C967.74,1079.051,976.436,1069.614,987.162,1069.614z"/>
		<rect x="985.056" y="1051.452" fill="#E8A097" width="23.938" height="9.717"/>
		<path fill="#ECF0F1" d="M970.261,1052.568c2.146,0,3.886,1.887,3.886,4.216c0,2.328-1.739,4.217-3.886,4.217
			c-2.145,0-3.884-1.889-3.884-4.217C966.377,1054.455,968.116,1052.568,970.261,1052.568z"/>
		<path fill="#ECF0F1" d="M979.49,1052.568c2.145,0,3.885,1.887,3.885,4.216c0,2.328-1.74,4.217-3.885,4.217
			c-2.146,0-3.886-1.889-3.886-4.217C975.605,1054.455,977.344,1052.568,979.49,1052.568z"/>
		<rect x="966.918" y="1044.933" fill="#DD644B" width="35.816" height="4.216"/>
	</g>
	<g>
		<path fill="#DD644B" d="M1072.522,1113.362c0,2.794-1.826,5.059-4.08,5.059h-44.376c-2.254,0-4.081-2.265-4.081-5.059v-70.198
			c0-2.794,1.827-5.06,4.081-5.06h44.376c2.254,0,4.08,2.266,4.08,5.06V1113.362z"/>
		<path fill="#FFFFFF" d="M1024.066,1115.892c-1.125,0-2.041-1.135-2.041-2.529v-70.198c0-1.396,0.916-2.53,2.041-2.53h44.376
			c1.125,0,2.04,1.135,2.04,2.53v70.198c0,1.395-0.915,2.529-2.04,2.529H1024.066z"/>
		<path fill="#ECF0F1" d="M1046.009,1069.7c10.73,0,19.426,9.437,19.426,21.081c0,11.64-8.695,21.08-19.426,21.08
			c-10.728,0-19.423-9.44-19.423-21.08C1026.586,1079.137,1035.281,1069.7,1046.009,1069.7z"/>
		<rect x="1043.901" y="1051.538" fill="#E8A097" width="23.938" height="9.718"/>
		<path fill="#ECF0F1" d="M1029.107,1052.653c2.146,0,3.885,1.888,3.885,4.217c0,2.328-1.738,4.215-3.885,4.215
			c-2.145,0-3.885-1.887-3.885-4.215C1025.222,1054.541,1026.962,1052.653,1029.107,1052.653z"/>
		<path fill="#ECF0F1" d="M1038.334,1052.653c2.146,0,3.886,1.888,3.886,4.217c0,2.328-1.739,4.215-3.886,4.215
			c-2.145,0-3.884-1.887-3.884-4.215C1034.45,1054.541,1036.19,1052.653,1038.334,1052.653z"/>
		<rect x="1025.764" y="1045.019" fill="#DD644B" width="35.816" height="4.215"/>
	</g>
	<g>
		<path fill="#DD644B" d="M1131.213,1113.448c0,2.793-1.826,5.059-4.08,5.059h-44.377c-2.253,0-4.08-2.266-4.08-5.059v-70.199
			c0-2.793,1.827-5.059,4.08-5.059h44.377c2.254,0,4.08,2.266,4.08,5.059V1113.448z"/>
		<path fill="#FFFFFF" d="M1082.756,1115.978c-1.125,0-2.04-1.135-2.04-2.529v-70.199c0-1.395,0.915-2.529,2.04-2.529h44.377
			c1.125,0,2.04,1.135,2.04,2.529v70.199c0,1.395-0.915,2.529-2.04,2.529H1082.756z"/>
		<path fill="#ECF0F1" d="M1104.699,1069.786c10.732,0,19.427,9.436,19.427,21.08c0,11.641-8.694,21.08-19.427,21.08
			c-10.727,0-19.422-9.439-19.422-21.08C1085.278,1079.222,1093.973,1069.786,1104.699,1069.786z"/>
		<rect x="1102.592" y="1051.624" fill="#E8A097" width="23.938" height="9.717"/>
		<path fill="#ECF0F1" d="M1087.798,1052.739c2.146,0,3.886,1.887,3.886,4.217c0,2.327-1.739,4.217-3.886,4.217
			c-2.145,0-3.884-1.89-3.884-4.217C1083.914,1054.626,1085.654,1052.739,1087.798,1052.739z"/>
		<path fill="#ECF0F1" d="M1097.027,1052.739c2.146,0,3.886,1.887,3.886,4.217c0,2.327-1.739,4.217-3.886,4.217
			c-2.146,0-3.884-1.89-3.884-4.217C1093.143,1054.626,1094.881,1052.739,1097.027,1052.739z"/>
		<rect x="1084.454" y="1045.104" fill="#DD644B" width="35.817" height="4.216"/>
	</g>
</g>
</svg>
